<mxfile host="app.diagrams.net" modified="2024-01-16T19:14:15.748Z" agent="Mozilla/5.0 (Windows NT 10.0; Win64; x64) AppleWebKit/537.36 (KHTML, like Gecko) Chrome/120.0.0.0 Safari/537.36 OPR/106.0.0.0" etag="YmM110hJMr3Q5YzSW_Vj" version="22.1.19" type="google">
  <diagram name="Page-1" id="74e2e168-ea6b-b213-b513-2b3c1d86103e">
    <mxGraphModel grid="1" page="1" gridSize="10" guides="1" tooltips="1" connect="1" arrows="1" fold="1" pageScale="1" pageWidth="1100" pageHeight="850" background="none" math="0" shadow="0">
      <root>
        <mxCell id="0" />
        <mxCell id="1" parent="0" />
        <mxCell id="lr_2rYWjJnWoMx1Z23g4-13" value="" style="rounded=0;whiteSpace=wrap;html=1;" vertex="1" parent="1">
          <mxGeometry x="310" y="20" width="520" height="800" as="geometry" />
        </mxCell>
        <mxCell id="lr_2rYWjJnWoMx1Z23g4-1" value="Найти среднее арифметическое среди всех элементов массива - Бердюгин А.А." style="text;html=1;strokeColor=none;fillColor=none;align=center;verticalAlign=middle;whiteSpace=wrap;rounded=0;fontSize=18;" vertex="1" parent="1">
          <mxGeometry x="385" y="60" width="360" height="30" as="geometry" />
        </mxCell>
        <mxCell id="lr_2rYWjJnWoMx1Z23g4-2" value="&lt;font style=&quot;font-size: 18px;&quot;&gt;begin&lt;/font&gt;" style="ellipse;whiteSpace=wrap;html=1;" vertex="1" parent="1">
          <mxGeometry x="490" y="130" width="120" height="60" as="geometry" />
        </mxCell>
        <mxCell id="lr_2rYWjJnWoMx1Z23g4-3" style="edgeStyle=orthogonalEdgeStyle;rounded=0;orthogonalLoop=1;jettySize=auto;html=1;exitX=0.5;exitY=1;exitDx=0;exitDy=0;" edge="1" parent="1" source="lr_2rYWjJnWoMx1Z23g4-4">
          <mxGeometry relative="1" as="geometry">
            <mxPoint x="550" y="340" as="targetPoint" />
          </mxGeometry>
        </mxCell>
        <mxCell id="lr_2rYWjJnWoMx1Z23g4-4" value="&lt;font style=&quot;font-size: 18px;&quot;&gt;a[i], n&lt;/font&gt;" style="shape=parallelogram;perimeter=parallelogramPerimeter;whiteSpace=wrap;html=1;fixedSize=1;" vertex="1" parent="1">
          <mxGeometry x="490" y="230" width="120" height="60" as="geometry" />
        </mxCell>
        <mxCell id="lr_2rYWjJnWoMx1Z23g4-5" value="" style="endArrow=classic;html=1;rounded=0;exitX=0.5;exitY=1;exitDx=0;exitDy=0;entryX=0.5;entryY=0;entryDx=0;entryDy=0;" edge="1" parent="1" source="lr_2rYWjJnWoMx1Z23g4-2" target="lr_2rYWjJnWoMx1Z23g4-4">
          <mxGeometry width="50" height="50" relative="1" as="geometry">
            <mxPoint x="540" y="350" as="sourcePoint" />
            <mxPoint x="590" y="300" as="targetPoint" />
          </mxGeometry>
        </mxCell>
        <mxCell id="lr_2rYWjJnWoMx1Z23g4-8" style="edgeStyle=orthogonalEdgeStyle;rounded=0;orthogonalLoop=1;jettySize=auto;html=1;exitX=0.5;exitY=1;exitDx=0;exitDy=0;" edge="1" parent="1" target="CVBEbYuVJULx1eZzfzl7-1">
          <mxGeometry relative="1" as="geometry">
            <mxPoint x="550" y="540" as="targetPoint" />
            <mxPoint x="550.2" y="470" as="sourcePoint" />
          </mxGeometry>
        </mxCell>
        <mxCell id="lr_2rYWjJnWoMx1Z23g4-10" style="edgeStyle=orthogonalEdgeStyle;rounded=0;orthogonalLoop=1;jettySize=auto;html=1;" edge="1" parent="1" target="lr_2rYWjJnWoMx1Z23g4-12">
          <mxGeometry relative="1" as="geometry">
            <mxPoint x="695" y="730" as="targetPoint" />
            <mxPoint x="695" y="690" as="sourcePoint" />
          </mxGeometry>
        </mxCell>
        <mxCell id="lr_2rYWjJnWoMx1Z23g4-12" value="&lt;font style=&quot;font-size: 18px;&quot;&gt;end&lt;/font&gt;" style="ellipse;whiteSpace=wrap;html=1;" vertex="1" parent="1">
          <mxGeometry x="645" y="740" width="100" height="50" as="geometry" />
        </mxCell>
        <mxCell id="lr_2rYWjJnWoMx1Z23g4-15" value="&lt;font style=&quot;font-size: 18px;&quot;&gt;for i = 0 .. n&lt;/font&gt;" style="shape=hexagon;perimeter=hexagonPerimeter2;whiteSpace=wrap;html=1;fixedSize=1;" vertex="1" parent="1">
          <mxGeometry x="483" y="430" width="135" height="40" as="geometry" />
        </mxCell>
        <mxCell id="CVBEbYuVJULx1eZzfzl7-1" value="&lt;font style=&quot;font-size: 18px;&quot;&gt;Sum +=a[i]&lt;br&gt;i += 1&amp;nbsp;&lt;/font&gt;" style="rounded=0;whiteSpace=wrap;html=1;" vertex="1" parent="1">
          <mxGeometry x="490" y="510" width="120" height="60" as="geometry" />
        </mxCell>
        <mxCell id="CVBEbYuVJULx1eZzfzl7-2" value="" style="endArrow=classic;html=1;rounded=0;entryX=0;entryY=0.5;entryDx=0;entryDy=0;exitX=0;exitY=0.5;exitDx=0;exitDy=0;" edge="1" parent="1" source="CVBEbYuVJULx1eZzfzl7-1" target="lr_2rYWjJnWoMx1Z23g4-15">
          <mxGeometry width="50" height="50" relative="1" as="geometry">
            <mxPoint x="550" y="610" as="sourcePoint" />
            <mxPoint x="600" y="560" as="targetPoint" />
            <Array as="points">
              <mxPoint x="400" y="540" />
              <mxPoint x="400" y="450" />
            </Array>
          </mxGeometry>
        </mxCell>
        <mxCell id="CVBEbYuVJULx1eZzfzl7-3" value="" style="endArrow=classic;html=1;rounded=0;entryX=0.606;entryY=0.575;entryDx=0;entryDy=0;entryPerimeter=0;" edge="1" parent="1">
          <mxGeometry width="50" height="50" relative="1" as="geometry">
            <mxPoint x="618.0000000000001" y="449.9999999999999" as="sourcePoint" />
            <mxPoint x="699.96" y="570.0000000000001" as="targetPoint" />
            <Array as="points">
              <mxPoint x="700" y="450" />
            </Array>
          </mxGeometry>
        </mxCell>
        <mxCell id="CVBEbYuVJULx1eZzfzl7-4" value="&lt;font style=&quot;font-size: 18px;&quot;&gt;Sum = 0&lt;br&gt;Avg = 0&lt;/font&gt;" style="rounded=0;whiteSpace=wrap;html=1;" vertex="1" parent="1">
          <mxGeometry x="490.5" y="340" width="120" height="50" as="geometry" />
        </mxCell>
        <mxCell id="CVBEbYuVJULx1eZzfzl7-5" value="" style="endArrow=classic;html=1;rounded=0;exitX=0.489;exitY=1.095;exitDx=0;exitDy=0;exitPerimeter=0;entryX=0.5;entryY=0;entryDx=0;entryDy=0;" edge="1" parent="1" source="CVBEbYuVJULx1eZzfzl7-4" target="lr_2rYWjJnWoMx1Z23g4-15">
          <mxGeometry width="50" height="50" relative="1" as="geometry">
            <mxPoint x="600" y="420" as="sourcePoint" />
            <mxPoint x="650" y="370" as="targetPoint" />
          </mxGeometry>
        </mxCell>
        <mxCell id="CVBEbYuVJULx1eZzfzl7-6" value="&lt;font style=&quot;font-size: 18px;&quot;&gt;Avg = Sum / n&lt;/font&gt;" style="rounded=0;whiteSpace=wrap;html=1;" vertex="1" parent="1">
          <mxGeometry x="630" y="570" width="130" height="40" as="geometry" />
        </mxCell>
        <mxCell id="CVBEbYuVJULx1eZzfzl7-7" value="" style="endArrow=classic;html=1;rounded=0;exitX=0.5;exitY=1;exitDx=0;exitDy=0;" edge="1" parent="1" source="CVBEbYuVJULx1eZzfzl7-6" target="CVBEbYuVJULx1eZzfzl7-8">
          <mxGeometry width="50" height="50" relative="1" as="geometry">
            <mxPoint x="600" y="690" as="sourcePoint" />
            <mxPoint x="650" y="640" as="targetPoint" />
          </mxGeometry>
        </mxCell>
        <mxCell id="CVBEbYuVJULx1eZzfzl7-8" value="&lt;font style=&quot;font-size: 18px;&quot;&gt;Avg&lt;/font&gt;" style="shape=document;whiteSpace=wrap;html=1;boundedLbl=1;" vertex="1" parent="1">
          <mxGeometry x="657.5" y="640" width="75" height="60" as="geometry" />
        </mxCell>
      </root>
    </mxGraphModel>
  </diagram>
</mxfile>
